<svg width="46" height="46" viewBox="0 0 46 46" fill="none" xmlns="http://www.w3.org/2000/svg">
<path d="M24.3477 2.69531V29.1992L25.6953 30.5469L24.3477 31.8945V46C36.3059 46 46 36.306 46 24.3477C46 12.3894 36.3059 2.69531 24.3477 2.69531Z" fill="#FFD959"/>
<path d="M0 21.6523C0 33.6106 9.69405 43.3047 21.6523 43.3047V35.2188L16.2617 27.7617L21.6523 20.3047V0C9.69405 0 0 9.69405 0 21.6523Z" fill="#FFEAA6"/>
<path d="M9.52344 13.5664H17.6094V16.2617H9.52344V13.5664Z" fill="#62676F"/>
<path d="M21.6523 20.3047V26.2308L10.9814 30.7258C8.3561 28.0373 6.73828 24.3601 6.73828 20.3047H21.6523Z" fill="#FF9D7D"/>
<path d="M21.6523 26.2308V35.2187C17.4705 35.2187 13.6906 33.4982 10.9814 30.7257C13.6896 27.9533 17.4705 26.2308 21.6523 26.2308Z" fill="#FF5253"/>
<path d="M31.0859 18.418V22.4609C31.0859 23.9496 32.2926 25.1562 33.7812 25.1562C35.2699 25.1562 36.4766 23.9496 36.4766 22.4609V18.418C36.4766 16.9293 35.2699 15.7227 33.7812 15.7227C32.2926 15.7227 31.0859 16.9293 31.0859 18.418Z" fill="#414851"/>
<path d="M24.3477 29.1992H32.4336V31.8945H24.3477V29.1992Z" fill="#FFC40F"/>
</svg>
