<svg width="31" height="25" viewBox="0 0 31 25" fill="none" xmlns="http://www.w3.org/2000/svg">
<path fill-rule="evenodd" clip-rule="evenodd" d="M13.5729 24.0625C13.5729 24.0625 11.6458 24.0625 11.6458 22.1354C11.6458 20.2083 13.5729 14.4271 21.2813 14.4271C28.9896 14.4271 30.9167 20.2083 30.9167 22.1354C30.9167 24.0625 28.9896 24.0625 28.9896 24.0625H13.5729ZM21.2813 12.5C22.8145 12.5 24.285 11.8909 25.3692 10.8067C26.4534 9.72252 27.0625 8.25203 27.0625 6.71875C27.0625 5.18547 26.4534 3.71498 25.3692 2.63079C24.285 1.54659 22.8145 0.9375 21.2813 0.9375C19.748 0.9375 18.2775 1.54659 17.1933 2.63079C16.1091 3.71498 15.5 5.18547 15.5 6.71875C15.5 8.25203 16.1091 9.72252 17.1933 10.8067C18.2775 11.8909 19.748 12.5 21.2813 12.5ZM10.135 24.0625C9.84933 23.4609 9.70686 22.8013 9.71876 22.1354C9.71876 19.5242 11.0292 16.8359 13.4496 14.9667C12.2415 14.5944 10.9828 14.4124 9.71876 14.4271C2.01043 14.4271 0.0833435 20.2083 0.0833435 22.1354C0.0833435 24.0625 2.01043 24.0625 2.01043 24.0625H10.135ZM8.75522 12.5C10.033 12.5 11.2584 11.9924 12.1619 11.0889C13.0653 10.1854 13.5729 8.96003 13.5729 7.68229C13.5729 6.40456 13.0653 5.17915 12.1619 4.27566C11.2584 3.37216 10.033 2.86458 8.75522 2.86458C7.47748 2.86458 6.25208 3.37216 5.34858 4.27566C4.44509 5.17915 3.93751 6.40456 3.93751 7.68229C3.93751 8.96003 4.44509 10.1854 5.34858 11.0889C6.25208 11.9924 7.47748 12.5 8.75522 12.5Z" fill="#867E7E"/>
</svg>
