<svg width="26" height="26" viewBox="0 0 26 26" fill="none" xmlns="http://www.w3.org/2000/svg">
<path d="M25.2985 11.3087C25.2979 11.3082 25.2973 11.3076 25.2967 11.307L14.6908 0.701416C14.2387 0.249146 13.6376 0 12.9983 0C12.359 0 11.7579 0.248947 11.3057 0.701218L0.70528 11.3014C0.70171 11.305 0.698139 11.3087 0.694568 11.3123C-0.233776 12.246 -0.232189 13.7609 0.699131 14.6922C1.12462 15.1179 1.68659 15.3645 2.28743 15.3903C2.31183 15.3927 2.33643 15.3939 2.36122 15.3939H2.78394V23.1989C2.78394 24.7434 4.04058 26 5.58544 26H9.73482C10.1554 26 10.4965 25.659 10.4965 25.2383V19.1191C10.4965 18.4144 11.0698 17.8411 11.7746 17.8411H14.222C14.9268 17.8411 15.5001 18.4144 15.5001 19.1191V25.2383C15.5001 25.659 15.8411 26 16.2618 26H20.4112C21.956 26 23.2127 24.7434 23.2127 23.1989V15.3939H23.6046C24.2438 15.3939 24.8448 15.1449 25.2973 14.6926C26.2296 13.7597 26.23 12.2422 25.2985 11.3087Z" fill="#2AD234"/>
</svg>
