<svg width="46" height="46" viewBox="0 0 46 46" fill="none" xmlns="http://www.w3.org/2000/svg">
<g clip-path="url(#clip0)">
<path d="M11.9791 37.375C8.91055 37.375 6.18122 35.4104 5.1903 32.4856L5.12322 32.2652C4.88939 31.4908 4.79164 30.8392 4.79164 30.1875V17.1197L0.141804 32.6408C-0.456196 34.9236 0.906554 37.2907 3.19314 37.9213L32.8306 45.8582C33.2005 45.954 33.5704 46 33.9346 46C35.8436 46 37.5877 44.7331 38.0765 42.8663L39.8034 37.375H11.9791Z" fill="#1BB425"/>
<path d="M17.25 17.25C19.364 17.25 21.0833 15.5307 21.0833 13.4166C21.0833 11.3026 19.364 9.58331 17.25 9.58331C15.1359 9.58331 13.4166 11.3026 13.4166 13.4166C13.4166 15.5307 15.1359 17.25 17.25 17.25Z" fill="#1BB425"/>
<path d="M41.2083 3.83331H12.4583C9.81713 3.83331 7.66663 5.98381 7.66663 8.62498V29.7083C7.66663 32.3495 9.81713 34.5 12.4583 34.5H41.2083C43.8495 34.5 46 32.3495 46 29.7083V8.62498C46 5.98381 43.8495 3.83331 41.2083 3.83331ZM12.4583 7.66665H41.2083C41.7373 7.66665 42.1666 8.09598 42.1666 8.62498V22.2314L36.1119 15.1666C35.4698 14.4133 34.5402 14.0108 33.5416 13.9878C32.5488 13.9936 31.6173 14.4344 30.981 15.1972L23.8625 23.7417L21.5433 21.4283C20.2323 20.1173 18.099 20.1173 16.79 21.4283L11.5 26.7164V8.62498C11.5 8.09598 11.9293 7.66665 12.4583 7.66665Z" fill="#1BB425"/>
</g>
<defs>
<clipPath id="clip0">
<rect width="46" height="46" fill="white"/>
</clipPath>
</defs>
</svg>
