<svg width="22" height="22" viewBox="0 0 22 22" fill="none" xmlns="http://www.w3.org/2000/svg">
<g clip-path="url(#clip0)">
<path d="M2.29165 9.625C1.0285 9.625 0 10.6535 0 11.9167V19.25C0 20.5132 1.0285 21.5417 2.29165 21.5417H5.04165C5.55775 21.5417 6.03255 21.3675 6.41665 21.0778V9.625H2.29165Z" fill="#978F8F"/>
<path d="M22 13.0625C22 12.5116 21.7818 11.9983 21.4032 11.6197C21.8313 11.1513 22.0495 10.5233 21.9899 9.86978C21.8827 8.70468 20.8331 7.79168 19.5992 7.79168H13.937C14.2175 6.94008 14.6666 5.37903 14.6666 4.12503C14.6666 2.13678 12.9772 0.458374 11.9166 0.458374C10.9642 0.458374 10.2841 0.994624 10.2547 1.01662C10.1466 1.10372 10.0833 1.23572 10.0833 1.37503V4.48343L7.44334 10.2025L7.33334 10.2584V20.0833C8.0795 20.4353 9.02365 20.625 9.625 20.625H18.0391C19.0373 20.625 19.9109 19.9522 20.1162 19.0236C20.2216 18.546 20.1602 18.0648 19.9503 17.6468C20.6277 17.3058 21.0833 16.6082 21.0833 15.8125C21.0833 15.488 21.0091 15.1773 20.8679 14.8959C21.5453 14.5549 22 13.8573 22 13.0625Z" fill="#978F8F"/>
</g>
<defs>
<clipPath id="clip0">
<rect width="22" height="22" fill="white"/>
</clipPath>
</defs>
</svg>
