<svg width="31" height="27" viewBox="0 0 31 27" fill="none" xmlns="http://www.w3.org/2000/svg">
<path d="M19.64 0H2.39512C1.07299 0.00167673 0.00158371 1.13601 0 2.5358V13.1861C0.00158371 14.5859 1.07299 15.7203 2.39512 15.7219H4.79024V20.7935C4.79027 20.9877 4.895 21.1648 5.05995 21.2496C5.2249 21.3345 5.42113 21.3121 5.5653 21.1922L12.1413 15.7219H19.64C20.9621 15.7203 22.0335 14.5859 22.0351 13.1861V2.5358C22.0335 1.13601 20.9621 0.00167673 19.64 0Z" fill="#828282"/>
<path d="M28.6049 5.37897H11.36C10.0379 5.38064 8.96648 6.51498 8.9649 7.91476V18.5651C8.96648 19.9649 10.0379 21.0992 11.36 21.1009H13.7551V26.1725C13.7552 26.3666 13.8599 26.5437 14.0248 26.6286C14.1898 26.7134 14.386 26.6911 14.5302 26.5711L21.1062 21.1009H28.6049C29.927 21.0992 30.9984 19.9649 31 18.5651V7.91476C30.9984 6.51498 29.927 5.38064 28.6049 5.37897Z" fill="#867E7E" fill-opacity="0.4"/>
</svg>
