<svg width="25" height="30" viewBox="0 0 25 30" fill="none" xmlns="http://www.w3.org/2000/svg">
<path d="M12.5 29.0833C14.1042 29.0833 15.4167 27.7708 15.4167 26.1666H9.58334C9.58334 26.9402 9.89063 27.6821 10.4376 28.229C10.9846 28.776 11.7265 29.0833 12.5 29.0833ZM21.25 20.3333V13.0416C21.25 8.56456 18.8583 4.81665 14.6875 3.82498V2.83331C14.6875 1.6229 13.7104 0.645813 12.5 0.645813C11.2896 0.645813 10.3125 1.6229 10.3125 2.83331V3.82498C6.12709 4.81665 3.75001 8.54998 3.75001 13.0416V20.3333L0.833344 23.25V24.7083H24.1667V23.25L21.25 20.3333Z" fill="#828282"/>
</svg>
