<svg width="41" height="41" viewBox="0 0 41 41" fill="none" xmlns="http://www.w3.org/2000/svg">
<path d="M35.0815 21.887H31.9107C32.2339 22.7719 32.4105 23.7268 32.4105 24.7221V36.7058C32.4105 37.1208 32.3382 37.5191 32.2068 37.8895H37.4488C39.407 37.8895 40.9999 36.2964 40.9999 34.3384V27.8055C41 24.5421 38.345 21.887 35.0815 21.887Z" fill="#59C5E8"/>
<path d="M8.5896 24.7221C8.5896 23.7268 8.76617 22.7719 9.08937 21.8871H5.91859C2.65508 21.8871 0 24.5421 0 27.8056V34.3385C0 36.2966 1.593 37.8897 3.55115 37.8897H8.79324C8.66183 37.5191 8.5896 37.1208 8.5896 36.7059V24.7221Z" fill="#59C5E8"/>
<path d="M24.1245 18.8036H16.8756C13.6121 18.8036 10.957 21.4587 10.957 24.7222V36.7059C10.957 37.3596 11.487 37.8896 12.1408 37.8896H28.8593C29.5131 37.8896 30.043 37.3597 30.043 36.7059V24.7222C30.043 21.4587 27.388 18.8036 24.1245 18.8036Z" fill="#59C5E8"/>
<path d="M20.5 3.11023C16.5752 3.11023 13.3822 6.30327 13.3822 10.2281C13.3822 12.8904 14.8515 15.2154 17.0215 16.4361C18.0507 17.0151 19.2373 17.346 20.5 17.346C21.7627 17.346 22.9493 17.0151 23.9785 16.4361C26.1486 15.2154 27.6178 12.8903 27.6178 10.2281C27.6178 6.30335 24.4248 3.11023 20.5 3.11023Z" fill="#59C5E8"/>
<path d="M8.00127 9.74466C5.066 9.74466 2.67807 12.1326 2.67807 15.0679C2.67807 18.0031 5.066 20.3911 8.00127 20.3911C8.74584 20.3911 9.45485 20.2368 10.0989 19.9596C11.2125 19.4802 12.1307 18.6315 12.6988 17.5685C13.0976 16.8224 13.3245 15.9712 13.3245 15.0679C13.3245 12.1327 10.9365 9.74466 8.00127 9.74466Z" fill="#59C5E8"/>
<path d="M32.9989 9.74466C30.0636 9.74466 27.6757 12.1326 27.6757 15.0679C27.6757 15.9713 27.9025 16.8225 28.3013 17.5685C28.8695 18.6316 29.7876 19.4803 30.9012 19.9596C31.5453 20.2368 32.2543 20.3911 32.9989 20.3911C35.9341 20.3911 38.3221 18.0031 38.3221 15.0679C38.3221 12.1326 35.9341 9.74466 32.9989 9.74466Z" fill="#59C5E8"/>
</svg>
