<svg width="22" height="22" viewBox="0 0 22 22" fill="none" xmlns="http://www.w3.org/2000/svg">
<path d="M15.3992 0H6.60157C2.96337 0 0.00332642 2.96004 0.00332642 6.59824V11.7302C0.00332642 15.2456 2.76652 18.1276 6.235 18.3185V21.3772C6.235 21.7207 6.51506 22 6.85927 22C7.02385 22 7.17965 21.9348 7.29732 21.8171L7.985 21.1294C9.79072 19.3233 12.1921 18.3284 14.7464 18.3284H15.3992C19.0374 18.3284 21.9975 15.3684 21.9975 11.7302V6.59824C21.9975 2.96004 19.0374 0 15.3992 0ZM6.235 10.6305C5.42635 10.6305 4.76872 9.97287 4.76872 9.16422C4.76872 8.35557 5.42635 7.69795 6.235 7.69795C7.04365 7.69795 7.70127 8.35557 7.70127 9.16422C7.70127 9.97287 7.04328 10.6305 6.235 10.6305ZM11.0004 10.6305C10.1917 10.6305 9.53412 9.97287 9.53412 9.16422C9.53412 8.35557 10.1917 7.69795 11.0004 7.69795C11.809 7.69795 12.4667 8.35557 12.4667 9.16422C12.4667 9.97287 11.8087 10.6305 11.0004 10.6305ZM15.7658 10.6305C14.9571 10.6305 14.2995 9.97287 14.2995 9.16422C14.2995 8.35557 14.9571 7.69795 15.7658 7.69795C16.5744 7.69795 17.2321 8.35557 17.2321 9.16422C17.2321 9.97287 16.5741 10.6305 15.7658 10.6305Z" fill="#978F8F"/>
</svg>
